<?xml version="1.0" encoding="UTF-8"?>
<svg id="Layer_2" data-name="Layer 2" xmlns="http://www.w3.org/2000/svg" viewBox="0 0 994.21 314.5">
  <g id="Layer_1-2" data-name="Layer 1">
    <g>
      <g>
        <path d="M400.97,124.47l21.66-18.19c6.5-6.5,12.56-14.73,20.79-14.73,6.93,0,10.83,1.3,12.13,3.47.87,2.17.43,5.2-.87,9.53-1.73,5.2-7.36,8.66-12.13,12.13-3.46,1.3-7.36,4.33-12.13,9.53.43,1.73.43,4.77,0,8.66-1.3,3.47-10.83,4.77-11.26,8.66-.43,4.77.43,7.8,2.6,8.66,1.3.43,3.03,0,4.33-1.73l4.33-4.33c3.03-2.17,9.53-4.77,19.93-8.23,7.37-2.6,13-6.5,16.46-11.7.87-3.03,3.03-8.23,6.07-14.73,2.17-3.47,6.5-6.5,13-9.53,6.5-3.03,10.4-5.2,12.13-6.93.87-.87,1.73-1.3,2.6-1.3,3.9,0,9.1,7.8,9.53,13.43.43,3.03-1.3,6.06-4.33,8.23-5.63,4.77-9.96,6.5-20.79,15.16-7.36,6.5-16.46,13-14.73,21.66l2.6,6.93c1.3,1.73,3.03,2.6,4.77,2.6s4.33-1.3,8.23-3.9c4.77-3.03,8.23-5.2,9.53-5.63,5.63-3.47,14.3-8.23,26.86-14.73,2.17-.87,3.03,0,3.47,3.03.43,3.03-.43,5.2-1.73,6.5-3.03,3.9-13.86,9.1-32.06,16.46-2.17.87-6.93,3.47-14.3,7.8-5.2,3.03-9.53,4.77-13,4.77-2.17,0-4.76-.87-7.36-2.17-7.36-4.33-11.26-9.1-11.26-14.73,0-3.47,8.66-9.53,8.66-11.26,0-2.17-1.3-3.03-3.9-3.03-2.17,0-8.23,4.33-9.96,4.77-3.9,1.73-8.66,6.07-13.86,13-5.2,6.93-10.4,10.83-15.6,11.26-13,1.3-20.36-.43-21.66-5.2-.43-2.17.87-6.93,4.33-14.73,1.73-3.9,10.83-10.83,11.26-16.46.43-2.17-.43-3.47-2.17-3.47-2.17,0-7.8,3.03-17.33,9.1-9.1,6.06-15.16,9.1-17.76,9.1-1.73,0-2.6-1.3-2.6-3.47v-5.63c.43-1.73,1.3-3.47,3.47-4.77,6.93-2.17,17.76-6.93,32.06-13.86Z"/>
        <path d="M572.53,88.08c2.6-4.77,4.33-8.66,5.2-11.26,2.17-3.03,9.96-3.9,12.13-6.93,2.6-6.06,3.9-10.83,4.33-13.86,1.73-3.03,3.47-5.2,4.77-6.5l9.96-7.36c4.33-3.03,7.8-4.77,10.83-4.77,3.9,0,6.93,3.9,9.1,11.7.43,2.17.43,3.9.43,5.2,0,9.96-12.13,16.03-21.23,21.66-1.3,1.3-5.2,2.6-11.26,4.33-4.33,1.3-6.5,3.9-6.93,6.93-.43,2.6.87,3.9,3.9,3.9,1.3,0,5.2-.87,11.7-2.6,5.63-1.3,9.1-1.73,11.26-.43,4.76,3.03,5.63,8.23,2.6,15.6-1.73,3.9-11.7,4.33-30.32,1.73-7.37-1.3-11.26.43-12.13,4.33-1.3,6.5-2.17,9.96-2.6,10.4-2.17,2.17-6.93,5.2-13.86,9.1-5.2,3.03-8.66,6.06-10.4,9.1-2.17,3.9-3.47,7.36-3.47,10.4,0,6.5,3.9,9.53,12.13,9.53,3.47,0,7.8-1.73,12.56-5.2,6.06-4.33,10.4-6.93,13.43-7.8,11.26-3.03,19.49-4.77,24.26-5.2,2.17-1.3,8.23-6.93,10.4-6.93,3.03,0,7.37,3.9,7.37,6.93s-4.33,7.36-13.43,12.13c-13,4.33-22.09,6.5-27.73,6.93-6.93,1.73-13.43,2.17-19.93,7.8-10.83,9.53-19.93,14.3-28.16,14.3-6.5,0-14.73-5.63-14.73-12.13,0-3.03,6.07-9.1,6.5-12.56v-8.66c-2.17.87-4.77,1.73-6.93,2.17-4.77,2.17-7.36,2.6-7.8,2.17-3.03-7.8-1.3-12.56,5.2-13.86,7.8-1.73,12.56-3.03,14.73-4.33,12.56-9.96,15.16-13.86,14.73-19.06-.43-1.73-.87-3.03-1.73-4.33-3.03-1.73-5.2-2.6-6.93-2.6-1.73-2.17-2.17-4.33-1.3-7.36.87-3.03,2.6-4.33,4.76-4.77,10.4-.43,22.09-.43,28.59-7.8Z"/>
        <path d="M644.44,124.47l21.66-18.19c6.5-6.5,12.56-14.73,20.79-14.73,6.93,0,10.83,1.3,12.13,3.47.87,2.17.43,5.2-.87,9.53-1.73,5.2-7.36,8.66-12.13,12.13-3.46,1.3-7.36,4.33-12.13,9.53.43,1.73.43,4.77,0,8.66-1.3,3.47-10.83,4.77-11.26,8.66-.43,4.77.43,7.8,2.6,8.66,1.3.43,3.03,0,4.33-1.73l4.33-4.33c3.03-2.17,9.53-4.77,19.93-8.23,7.37-2.6,13-6.5,16.46-11.7.87-3.03,3.03-8.23,6.07-14.73,2.17-3.47,6.5-6.5,13-9.53,6.5-3.03,10.4-5.2,12.13-6.93.87-.87,1.73-1.3,2.6-1.3,3.9,0,9.1,7.8,9.53,13.43.43,3.03-1.3,6.06-4.33,8.23-5.63,4.77-9.96,6.5-20.79,15.16-7.36,6.5-16.46,13-14.73,21.66l2.6,6.93c1.3,1.73,3.03,2.6,4.77,2.6s4.33-1.3,8.23-3.9c4.77-3.03,8.23-5.2,9.53-5.63,5.63-3.47,14.3-8.23,26.86-14.73,2.17-.87,3.03,0,3.47,3.03.43,3.03-.43,5.2-1.73,6.5-3.03,3.9-13.86,9.1-32.06,16.46-2.17.87-6.93,3.47-14.3,7.8-5.2,3.03-9.53,4.77-13,4.77-2.17,0-4.76-.87-7.36-2.17-7.36-4.33-11.26-9.1-11.26-14.73,0-3.47,8.66-9.53,8.66-11.26,0-2.17-1.3-3.03-3.9-3.03-2.17,0-8.23,4.33-9.96,4.77-3.9,1.73-8.66,6.07-13.86,13-5.2,6.93-10.4,10.83-15.6,11.26-13,1.3-20.36-.43-21.66-5.2-.43-2.17.87-6.93,4.33-14.73,1.73-3.9,10.83-10.83,11.26-16.46.43-2.17-.43-3.47-2.17-3.47-2.17,0-7.8,3.03-17.33,9.1-9.1,6.06-15.16,9.1-17.76,9.1-1.73,0-2.6-1.3-2.6-3.47v-5.63c.43-1.73,1.3-3.47,3.47-4.77,6.93-2.17,17.76-6.93,32.06-13.86Z"/>
        <path d="M781.33,122.73c4.77-3.9,9.96-9.53,15.6-16.46l8.66-11.26c1.73-1.73,4.77-3.9,8.66-6.93,5.63-3.9,9.1-6.06,9.53-6.06,3.9,0,7.36,3.03,9.53,9.53-.43,1.73,0,4.33.87,7.8.87.87,1.73,1.3,2.6,1.3,2.17,0,8.23-6.06,9.53-6.5,2.17-2.6,5.63-5.2,11.26-7.8,8.66-.43,15.6,7.36,13.86,15.6-.43,3.03-2.6,5.2-6.5,6.5-6.93,1.73-12.13,2.6-29.02,9.96-5.63,3.47-10.83,10.4-16.46,20.79-3.46,6.93-5.2,10.83-5.2,12.13.43,3.03,13,6.5,14.73,5.2,6.5-3.03,11.7-4.77,15.6-4.33,4.76.43,8.23.43,10.4,0,4.77-1.3,11.26-4.33,19.5-9.1,7.36-4.33,12.56-6.5,15.16-6.5,3.03,0,5.2.43,3.9,6.06-.43,3.03-1.73,5.2-3.03,6.06l-50.25,17.33c-11.26,3.47-21.66,5.2-31.19,5.2-3.03,0-10.83,1.73-13.86,1.73s-5.2-1.3-6.93-3.47c-1.73-3.03-1.73-7.36,0-13,.87-2.6,3.03-5.2,6.5-7.36,6.93-5.2,6.06-8.66,9.1-17.76,1.73-3.03,9.96-5.63,10.4-9.53,1.3-6.93-.43-10.83-4.33-11.26-2.17-.43-9.1,6.06-21.66,19.06-13.43,14.3-24.69,22.96-34.66,25.99-.87.43-1.3,0-1.3-1.3,0-6.06,2.17-10.83,6.5-14.3l22.53-17.33Z"/>
        <path d="M981.04,121.87c-2.17.43-6.07.87-11.7,2.17l-11.26,3.03c-2.17,1.3-5.63,3.47-10.4,5.63-3.9.43-11.26-3.9-13.43-3.9s-3.9.87-5.63,2.6c-3.47,3.47-2.6,4.77-16.03,9.53-3.9,1.73-6.06,4.33-5.63,7.36.43,3.03,1.73,5.63,4.77,7.8,2.17,1.3,6.93,1.73,15.16.43,3.03-1.3,7.8-3.03,14.73-5.2,4.77-.43,16.9-1.73,25.56-4.77,3.03-1.73,8.66-4.33,16.03-7.36,4.76-2.17,8.23-3.03,9.96-3.03.87,0,1.3,1.73.87,4.77-.43,9.1-10.4,13-17.76,17.76-2.6,2.17-7.36,4.77-14.3,7.8-1.73-.43-4.77-.43-8.66-.43-1.3,1.3-4.33,3.47-8.23,5.63-2.17-.43-5.2-.43-9.96-.43s-12.56,3.9-17.33,3.9c-3.03,0-8.23-2.17-11.26-2.17s-8.66,3.47-10.83,3.47c-3.9,0-6.93-3.03-8.67-8.66-.43-3.03,3.03-8.23,3.03-10.4s-3.47-7.8-5.63-6.06c-2.6,1.73-3.9.43-4.33-3.47-.43-7.36,4.76-8.66,12.13-13.86,3.03-4.33,9.53-9.96,19.06-16.46.43,0,1.73-.43,3.03-.87,2.6-1.3,5.63-3.47,8.66-7.36.43-1.3,1.73-2.6,3.03-4.33,1.73.43,4.33,0,7.8-.87,3.47-2.6,3.9-13,12.13-9.53,3.9.87,6.07,1.3,7.37.87,5.63-.43,16.03-9.96,20.79-9.96,2.17,0,5.63,0,12.56,10.4,3.9,6.06,5.63,10.4,5.63,12.56-.43,5.63-3.9,9.96-11.26,13.43ZM969.35,96.31c-1.3,0-5.2,2.17-11.7,6.93-7.37,5.2-10.4,8.66-9.96,9.96,0,.43.43.43.87.43,1.3,0,3.47-.87,6.5-2.6,4.77-2.6,7.36-4.33,8.66-4.77,3.47-.43,6.93-2.17,10.83-4.77,0-2.6-5.63-5.2-5.2-5.2Z"/>
      </g>
      <g>
        <path d="M400.14,262.92c-8.66,2.17-14.73,4.33-18.63,7.36-4.33,3.9-6.5,6.06-6.5,7.36s1.73,2.17,4.77,2.17c6.93,0,17.76,8.23,22.96,8.23,1.3,0,3.03-.43,4.77-1.3,2.17-.87,3.9-4.77,6.06-12.13s5.63-11.7,9.53-12.13c6.5-1.3,11.7,0,14.73,3.47,1.73,1.73,2.6,3.9,2.6,6.5,0,9.1-4.77,19.49-19.93,24.69-7.36,2.6-11.7,4.77-13,6.93s-3.9,3.47-7.37,3.47c2.17,0-1.3-.43-9.96-.87-3.9-.43-9.1-3.47-14.73-9.53s-10.83-8.66-15.6-7.8c-3.03.43-5.63,1.73-8.23,3.9-9.1,7.36-9.53,7.8-11.7,7.8-3.9,0-5.63-3.47-5.63-10.4,0-3.03.43-5.2,1.3-6.5,2.6-3.03,9.1-6.06,19.06-9.96,13.43-5.2,22.09-9.1,26.86-11.7,16.9-8.66,36.82-18.19,39.86-25.13,1.3-2.6-.87-3.9-6.5-3.9-8.23-.43-13.43-.87-15.16-1.3-1.3-.43-8.23-4.77-12.13-4.33-3.03.43-4.33,3.9-4.77,11.26,0,6.93-1.73,10.4-4.77,10.4-9.1.43-13.43-3.47-13.43-10.83,0-3.9,2.17-7.8,6.5-12.56,2.17-2.17,6.06-3.9,12.13-6.07,3.03-.87,5.63-1.3,8.23-1.3,3.03,0,7.37.87,13.86,2.6s12.13,2.6,16.03,2.17c.43,0,3.03-.43,7.8-.87,7.37-.87,10.83-1.3,11.26-.87,4.77,2.17,7.36,5.63,7.36,9.96,0,3.47-2.17,6.5-6.5,9.1-2.17,0-8.23,3.47-18.19,10.4-6.5,5.63-13.86,9.53-22.96,11.7Z"/>
        <path d="M494.15,297.15c-10.83,2.6-17.76,3.03-21.66,1.73-8.66-3.47-12.13-15.16-16.03-24.26-2.6.87-4.77,1.3-6.5,1.3-5.63,0-8.23-2.17-8.23-6.5,0-3.47,1.3-6.06,6.06-6.5,3.9-1.3,3.47-.87,13.43-8.23,2.17-1.73,5.63-5.2,9.53-10.83,3.03-4.77,6.5-7.8,10.4-9.1l14.3-2.6,14.3-10.4c4.76-3.47,9.53-8.23,14.73-7.8,1.3.87,3.9,2.17,7.37,3.47,3.9,1.3,12.56-3.03,14.73-3.03,1.3,0,2.6.43,3.9,1.3,2.17,1.3,4.77,6.5,6.93,14.73,1.73,5.63,0,10.4-5.2,15.16-1.3,2.17-5.63,9.1-13.86,20.36-.43.43,0,.43.87.43,1.3,0,4.33-.43,9.96-1.73s9.1-1.73,10.4-1.73c0-1.3.87,3.03,2.6,7.36,0,2.17-1.73,4.33-5.63,6.06-11.7,2.6-25.56,6.5-42.45,12.13-3.9,2.17-10.4,5.2-19.93,8.66ZM533.57,234.33c-.43-1.73-3.03-3.47-7.36-4.77-1.3-.43-2.6-.87-3.9-.87-7.36,0-15.6,10.83-22.96,18.19-8.66,5.2-20.36,8.66-19.06,20.79,1.3,9.96,5.63,9.1,10.4,10.4,3.47.87,6.5-1.3,8.66-6.5,3.03-6.93,5.2-11.26,7.36-12.56,4.77-3.03,15.6-3.03,19.5-6.93,4.76-4.77,7.36-8.66,7.36-12.13v-5.63Z"/>
        <path d="M579.06,248.63c1.3-2.17,3.03-5.2,6.06-9.53,4.77-5.2,12.13-8.66,19.06-12.13,0,0,4.33-3.47,12.56-10.4,4.76-3.9,9.53-5.63,14.3-5.2,12.13.87,18.63,4.77,19.93,11.26.43,3.03-2.17,6.06-8.23,8.66-6.06,2.6-8.66,5.63-8.23,8.66.87,6.5,3.03,9.53,6.93,9.53,2.17,0,4.33-2.17,7.37-6.5s5.2-6.93,7.36-8.23c7.37-3.9,23.39-3.9,30.33-6.93,1.73-.43,4.77-2.6,9.1-6.06,3.03-2.6,6.06-3.9,9.1-3.47,9.96,1.3,16.03,10.4,16.03,17.76,0,3.9-1.3,7.8-3.9,10.83-3.03,3.47-11.7,5.2-14.73,6.93-2.17,2.17-6.07,5.2-11.26,9.53l-8.23,9.1c-3.03,3.03-6.93,5.2-10.83,6.5-1.3.43-1.73,1.73-.87,4.77.43,2.6,1.73,3.47,3.47,3.03,10.4-2.17,27.29-7.36,50.25-14.73l19.06-8.66c1.3-.43,2.6-.87,3.9-.87,2.17,0,3.47,1.3,3.47,4.33s-.87,5.2-2.17,6.06c-5.2,3.47-14.3,8.23-26.86,13.86l-28.59,5.2c-3.9,1.3-9.53,4.33-16.03,9.1-6.5,4.77-11.7,7.36-15.6,7.36-2.17,0-4.33-.43-6.5-1.73-7.8-3.9-12.13-8.23-13-13.86-.43-3.03,0-6.06,2.17-9.1,4.76-5.63,6.06-11.26,22.09-16.9,6.93-2.17,10.83-5.63,11.26-10.4,1.3-8.66-1.73-12.56-5.2-12.56-2.17,0-4.76,1.3-8.66,3.9-5.63,3.9-9.1,5.63-9.53,6.07-3.9,2.17-7.8,4.77-11.7,8.66-5.63,5.63-9.1,9.1-10.83,10.4-10.4,10.83-20.36,25.56-32.92,24.26-6.93-.43-11.26-1.3-13.43-1.73-4.77-1.3-6.93-3.9-7.37-7.8-.43-3.47,1.73-6.06,6.5-8.23,7.36-2.6,11.26-4.33,12.56-5.63,8.23-6.93,16.9-13.43,20.79-23.39,3.46-8.23,5.2-12.56,5.2-13,0-4.33-2.17-6.5-6.07-6.5-.43,0-5.63,3.03-15.6,9.1-5.63,3.47-13,13.86-16.46,17.33-6.93,6.5-11.26,10.4-13.43,11.7-4.33,3.47-9.53,6.5-15.16,9.1-1.3.43-2.6,0-3.03-1.73-.43-3.47.87-9.53,3.03-11.26,5.2-2.6,12.56-8.23,22.53-16.46Z"/>
        <path d="M837.25,247.76c-2.17.43-6.07.87-11.7,2.17l-11.26,3.03c-2.17,1.3-5.63,3.47-10.4,5.63-3.9.43-11.26-3.9-13.43-3.9s-3.9.87-5.63,2.6c-3.47,3.47-2.6,4.77-16.03,9.53-3.9,1.73-6.06,4.33-5.63,7.36.43,3.03,1.73,5.63,4.77,7.8,2.17,1.3,6.93,1.73,15.16.43,3.03-1.3,7.8-3.03,14.73-5.2,4.77-.43,16.9-1.73,25.56-4.77,3.03-1.73,8.66-4.33,16.03-7.36,4.76-2.17,8.23-3.03,9.96-3.03.87,0,1.3,1.73.87,4.77-.43,9.1-10.4,13-17.76,17.76-2.6,2.17-7.36,4.77-14.3,7.8-1.73-.43-4.77-.43-8.66-.43-1.3,1.3-4.33,3.47-8.23,5.63-2.17-.43-5.2-.43-9.96-.43s-12.56,3.9-17.33,3.9c-3.03,0-8.23-2.17-11.26-2.17s-8.66,3.47-10.83,3.47c-3.9,0-6.93-3.03-8.67-8.66-.43-3.03,3.03-8.23,3.03-10.4s-3.47-7.8-5.63-6.06c-2.6,1.73-3.9.43-4.33-3.47-.43-7.36,4.76-8.66,12.13-13.86,3.03-4.33,9.53-9.96,19.06-16.46.43,0,1.73-.43,3.03-.87,2.6-1.3,5.63-3.47,8.66-7.36.43-1.3,1.73-2.6,3.03-4.33,1.73.43,4.33,0,7.8-.87,3.47-2.6,3.9-13,12.13-9.53,3.9.87,6.07,1.3,7.37.87,5.63-.43,16.03-9.96,20.79-9.96,2.17,0,5.63,0,12.56,10.4,3.9,6.06,5.63,10.4,5.63,12.56-.43,5.63-3.9,9.96-11.26,13.43ZM825.56,222.2c-1.3,0-5.2,2.17-11.7,6.93-7.37,5.2-10.4,8.66-9.96,9.96,0,.43.43.43.87.43,1.3,0,3.47-.87,6.5-2.6,4.77-2.6,7.36-4.33,8.66-4.77,3.47-.43,6.93-2.17,10.83-4.77,0-2.6-5.63-5.2-5.2-5.2Z"/>
        <path d="M908.3,291.08c2.17-1.73,3.47-6.5,4.33-13.86.43-4.33-1.3-9.53-5.2-15.6-3.9-6.07-5.63-11.26-5.2-15.6.43-2.17,2.6-6.5,2.6-9.53,0-2.17-.87-3.47-2.17-3.47s-4.77,2.17-9.96,6.93c-6.06,5.63-9.96,9.1-12.13,10.4-9.1,7.8-24.26,18.63-45.05,32.06-1.3.43-1.73,0-1.73-1.73,0-3.47,1.73-9.1,3.47-10.4,5.2-5.63,14.73-14.3,28.59-25.99,15.6-11.26,29.03-19.49,39.86-25.13,2.6-1.3,7.8-3.03,15.6-6.06,2.6-1.3,6.5-2.6,12.13-4.33,9.96-3.03,20.79,1.73,20.79,12.13,0,6.5-8.23,15.6-14.73,15.6-4.77,0-15.6-6.5-17.76-6.5-1.3,0-2.6.87-3.03,2.17-2.6,6.5-3.03,10.4-1.73,12.13,2.17,0,5.2.87,8.66,2.6,2.17,2.17,3.9,9.96,6.07,22.53,0,.43.43.43.87.43,1.3,0,4.77-1.3,10.4-3.47,6.06-2.17,9.96-3.47,11.26-3.47.43,0,.87,0,.87.43v4.33c-.43,2.6-1.73,4.77-4.33,6.93-6.5,2.6-12.56,5.63-19.06,8.66-.43,2.17-2.17,3.9-5.2,4.33-3.9.43-7.8,3.03-11.26,6.93-10.4,11.7-23.39,17.76-39.42,17.76-12.56,0-18.63-5.2-18.63-16.03,0-2.17.43-4.77.87-7.36,1.73-6.5,5.2-9.96,10.83-9.96,6.5,0,9.53,1.73,9.53,4.77,0,.43-.87,3.03-.87,4.33,0,3.47,6.93,6.93,15.6,6.93,7.36,0,12.13-1.3,15.16-3.9Z"/>
      </g>
      <path d="M138.57,140.47c-2.24-5.27-3.14-9.11-3.14-12.46,0-5.75,5.83-10.55,9.87-15.82,4.93-5.75,10.76-8.63,17.94-8.63,8.97,0,19.28,3.84,30.49,11.51,13,9.11,19.73,19.18,21.08,30.68,1.35,10.07,0,19.18-3.14,27.33l-10.76,19.18c-2.24,4.31-8.07,10.55-17.49,17.74-11.21,8.15-21.97,13.42-32.29,15.34-6.28,1.44-12.11,1.92-17.49,1.92-12.11,0-23.77-3.84-34.98-11.03-28.25-18.22-42.15-38.83-42.15-61.84,0-17.26,8.97-33.56,26.46-48.42l32.29-29.72c20.18-15.82,41.26-26.85,64.13-33.56,7.62-2.4,17.04-3.36,28.7-3.36,17.49,0,41.71,2.88,73.1,9.11,9.42,1.92,17.04,2.88,22.42,2.88,3.14,0,6.73-.48,10.76-1.44,8.52-1.92,17.04.96,20.18-9.11,2.24-6.23,5.83-11.03,11.66-13.42,3.14-1.44,7.18-1.92,11.21-1.92,9.42,0,8.97,6.23,8.97,10.07,0,5.75-1.79,11.03-4.93,15.34,13,2.4,24.67,3.36,34.53,3.36,6.28,0,11.21-.48,15.25-1.44,14.35-4.31,21.53-10.55,21.53-17.74,0-4.79-4.48-9.59-13.45-14.38-.9-.48-1.35-2.4-1.35-4.79,0-10.55,4.48-15.82,13-15.82,5.83,0,13,3.83,21.08,11.51,8.07,7.19,12.11,12.94,12.11,16.78,0,2.88-2.24,5.75-6.73,8.63l-13.45,9.11c-13.9,11.99-28.25,19.66-43.05,23.97-9.42,2.4-25.56,4.31-47.53,5.75-3.59.48-5.83-3.84-7.62-3.84-2.24,0-6.28,2.4-13,6.71-4.93,3.36-8.07,10.55-9.87,20.61s-5.83,17.74-11.66,22.53c-21.97,17.26-29.15,25.89-22.42,25.89,4.04,0,14.8-2.88,19.73-2.88s11.21.48,19.28,1.92c6.73,1.44,11.21,1.92,12.56,1.44,4.04-.48,6.28-3.36,6.28-8.63.45-5.27,1.34-9.11,3.14-11.03,12.11-12.94,18.39-12.94,18.39.48,0,10.55-1.79,17.26-5.83,20.14-14.35,11.51-24.22,18.22-29.15,19.66-5.83.96-12.11,1.92-17.94,3.36-1.34.48-2.24.48-3.59.48-4.04,0-17.04-5.75-22.42-4.31-5.83,0-10.76-.96-19.73,6.23-4.04,10.55-7.18,17.74-10.31,21.09s-6.28,9.59-9.42,18.7c-4.93,13.42-14.35,26.85-29.15,40.75-14.35,13.42-29.15,23.01-44.84,29.24-6.73,3.84-20.18,10.07-41.26,18.22l-20.63,6.71c-13.9,3.36-28.25,5.27-43.05,5.27-20.18-.48-35.43-3.84-45.74-10.55-12.11-7.67-19.28-20.61-22.42-38.35-1.79-10.55-2.69-17.26-2.69-20.14,0-11.99,3.14-21.57,9.42-29.72,3.14-3.84,6.28-5.75,9.87-5.75,7.62,0,12.11,3.84,13.45,11.99.45,2.4.9,4.79.9,7.19,0,5.75-1.79,12.46-4.93,19.66-3.14,7.19-4.48,12.46-4.48,15.82,0,4.31,1.34,9.11,4.04,13.9,4.93,9.11,12.11,13.42,21.08,13.42h21.08c6.28,2.4,14.35,3.84,23.77,3.84,23.77,0,50.23-7.67,57.4-18.7,2.24-3.36,9.87-8.63,21.97-15.82,13.45-8.15,23.32-15.34,29.15-21.57,5.83-6.23,12.11-14.38,18.39-23.49l14.8-21.57c7.62-10.55,15.25-22.05,22.42-35,4.04-6.71,7.62-13.42,11.21-20.14l13-24.93c6.28-11.51,14.8-22.53,25.56-33.56,1.35-1.44,2.24-2.88,2.24-4.31,0-7.19-7.62-9.59-22.87-7.67-3.14.48-6.28.48-10.31.48s-20.63-1.92-49.33-5.27c-31.39-3.36-59.19-1.44-82.96,6.71-15.7,5.27-28.25,14.86-38.57,29.72l-14.8,31.64c-1.35,2.4-2.24,7.67-3.14,15.34-1.79,17.26-3.14,18.7-3.14,22.05,0,2.4,1.35,5.27,3.59,7.67l8.07,8.63c2.69,3.36,6.73,7.19,12.56,11.51,4.48,3.36,13,5.75,26.01,8.15,7.17.96,12.56,1.44,16.59,1.44,3.14,0,5.83-.48,8.52-1.44,2.69-1.44,5.83-1.92,9.87-1.92s9.87-3.84,17.94-11.99c9.42-9.11,13.9-18.7,12.56-27.81-1.79-13.42-3.59-21.57-4.93-23.97-2.69-4.31-9.87-6.71-21.52-7.67-3.59,0-14.8,10.55-27.8,10.55-4.48,0-9.87-.96-15.7-2.4h7.62Z"/>
    </g>
  </g>
</svg>