<?xml version="1.0" encoding="UTF-8"?>
<svg id="Layer_2" data-name="Layer 2" xmlns="http://www.w3.org/2000/svg" xmlns:xlink="http://www.w3.org/1999/xlink" viewBox="0 0 689.76 277.02">
  <defs>
    <style>
      .cls-1 {
        filter: url(#outer-glow-2);
      }

      .cls-2 {
        fill: #fff;
      }

      .cls-3 {
        filter: url(#outer-glow-1);
        opacity: .44;
      }
    </style>
    <filter id="outer-glow-1" x="160.71" y="-30.86" width="338" height="338" filterUnits="userSpaceOnUse">
      <feOffset dx="0" dy="0"/>
      <feGaussianBlur result="blur" stdDeviation="10"/>
      <feFlood flood-color="#000" flood-opacity=".75"/>
      <feComposite in2="blur" operator="in"/>
      <feComposite in="SourceGraphic"/>
    </filter>
    <filter id="outer-glow-2" x="-30.29" y="-29.86" width="751" height="279" filterUnits="userSpaceOnUse">
      <feOffset dx="0" dy="0"/>
      <feGaussianBlur result="blur-2" stdDeviation="10"/>
      <feFlood flood-color="#000" flood-opacity=".75"/>
      <feComposite in2="blur-2" operator="in"/>
      <feComposite in="SourceGraphic"/>
    </filter>
  </defs>
  <g id="Layer_1-2" data-name="Layer 1">
    <g>
      <g class="cls-3">
        <polygon class="cls-2" points="329.24 0 340.28 111.84 427.18 40.57 355.9 127.46 467.74 138.51 355.9 149.55 427.18 236.45 340.28 165.18 329.24 277.02 318.19 165.18 231.3 236.45 302.57 149.55 190.73 138.51 302.57 127.46 231.3 40.57 318.19 111.84 329.24 0"/>
      </g>
      <g class="cls-1">
        <g>
          <path d="M278.19,87.23l15.03-12.62c4.51-4.51,8.72-10.22,14.43-10.22,4.81,0,7.51.9,8.42,2.4.6,1.5.3,3.61-.6,6.61-1.2,3.61-5.11,6.01-8.42,8.42-2.41.9-5.11,3.01-8.42,6.61.3,1.2.3,3.31,0,6.01-.9,2.4-7.51,3.31-7.81,6.01-.3,3.31.3,5.41,1.8,6.01.9.3,2.1,0,3.01-1.2l3-3.01c2.1-1.5,6.61-3.31,13.83-5.71,5.11-1.8,9.02-4.51,11.42-8.11.6-2.1,2.1-5.71,4.21-10.22,1.5-2.4,4.51-4.51,9.02-6.61,4.51-2.1,7.21-3.61,8.42-4.81.6-.6,1.2-.9,1.8-.9,2.71,0,6.31,5.41,6.61,9.32.3,2.1-.9,4.21-3.01,5.71-3.91,3.31-6.91,4.51-14.43,10.52-5.11,4.51-11.42,9.02-10.22,15.03l1.8,4.81c.9,1.2,2.1,1.8,3.31,1.8s3-.9,5.71-2.7c3.31-2.1,5.71-3.61,6.61-3.91,3.91-2.4,9.92-5.71,18.63-10.22,1.5-.6,2.1,0,2.4,2.1.3,2.1-.3,3.61-1.2,4.51-2.1,2.71-9.62,6.31-22.24,11.42-1.5.6-4.81,2.4-9.92,5.41-3.61,2.1-6.61,3.31-9.02,3.31-1.5,0-3.31-.6-5.11-1.5-5.11-3.01-7.81-6.31-7.81-10.22,0-2.4,6.01-6.61,6.01-7.81,0-1.5-.9-2.1-2.71-2.1-1.5,0-5.71,3.01-6.91,3.31-2.71,1.2-6.01,4.21-9.62,9.02-3.61,4.81-7.21,7.51-10.82,7.81-9.02.9-14.13-.3-15.03-3.61-.3-1.5.6-4.81,3.01-10.22,1.2-2.71,7.51-7.51,7.81-11.42.3-1.5-.3-2.4-1.5-2.4-1.5,0-5.41,2.1-12.02,6.31-6.31,4.21-10.52,6.31-12.32,6.31-1.2,0-1.8-.9-1.8-2.4v-3.91c.3-1.2.9-2.4,2.4-3.31,4.81-1.5,12.32-4.81,22.24-9.62Z"/>
          <path d="M397.2,61.98c1.8-3.31,3.01-6.01,3.61-7.81,1.5-2.1,6.91-2.71,8.42-4.81,1.8-4.21,2.7-7.51,3-9.62,1.2-2.1,2.4-3.61,3.31-4.51l6.91-5.11c3.01-2.1,5.41-3.31,7.51-3.31,2.71,0,4.81,2.71,6.31,8.11.3,1.5.3,2.71.3,3.61,0,6.91-8.42,11.12-14.73,15.03-.9.9-3.61,1.8-7.81,3.01-3.01.9-4.51,2.71-4.81,4.81-.3,1.8.6,2.71,2.7,2.71.9,0,3.61-.6,8.12-1.8,3.91-.9,6.31-1.2,7.81-.3,3.31,2.1,3.91,5.71,1.8,10.82-1.2,2.71-8.12,3.01-21.04,1.2-5.11-.9-7.81.3-8.42,3.01-.9,4.51-1.5,6.91-1.8,7.21-1.5,1.5-4.81,3.61-9.62,6.31-3.61,2.1-6.01,4.21-7.21,6.31-1.5,2.7-2.4,5.11-2.4,7.21,0,4.51,2.71,6.61,8.42,6.61,2.41,0,5.41-1.2,8.72-3.61,4.21-3.01,7.21-4.81,9.32-5.41,7.81-2.1,13.53-3.31,16.83-3.61,1.5-.9,5.71-4.81,7.21-4.81,2.1,0,5.11,2.71,5.11,4.81s-3.01,5.11-9.32,8.42c-9.02,3.01-15.33,4.51-19.24,4.81-4.81,1.2-9.32,1.5-13.83,5.41-7.51,6.61-13.83,9.92-19.54,9.92-4.51,0-10.22-3.91-10.22-8.42,0-2.1,4.21-6.31,4.51-8.72v-6.01c-1.5.6-3.31,1.2-4.81,1.5-3.31,1.5-5.11,1.8-5.41,1.5-2.1-5.41-.9-8.72,3.61-9.62,5.41-1.2,8.72-2.1,10.22-3.01,8.72-6.91,10.52-9.62,10.22-13.22-.3-1.2-.6-2.1-1.2-3.01-2.1-1.2-3.61-1.8-4.81-1.8-1.2-1.5-1.5-3.01-.9-5.11.6-2.1,1.8-3.01,3.31-3.31,7.21-.3,15.33-.3,19.84-5.41Z"/>
          <path d="M447.09,87.23l15.03-12.62c4.51-4.51,8.72-10.22,14.43-10.22,4.81,0,7.51.9,8.42,2.4.6,1.5.3,3.61-.6,6.61-1.2,3.61-5.11,6.01-8.42,8.42-2.4.9-5.11,3.01-8.42,6.61.3,1.2.3,3.31,0,6.01-.9,2.4-7.51,3.31-7.81,6.01-.3,3.31.3,5.41,1.8,6.01.9.3,2.1,0,3.01-1.2l3-3.01c2.1-1.5,6.61-3.31,13.83-5.71,5.11-1.8,9.02-4.51,11.42-8.11.6-2.1,2.1-5.71,4.21-10.22,1.5-2.4,4.51-4.51,9.02-6.61,4.51-2.1,7.21-3.61,8.42-4.81.6-.6,1.2-.9,1.8-.9,2.71,0,6.31,5.41,6.61,9.32.3,2.1-.9,4.21-3.01,5.71-3.91,3.31-6.91,4.51-14.43,10.52-5.11,4.51-11.42,9.02-10.22,15.03l1.8,4.81c.9,1.2,2.1,1.8,3.31,1.8s3-.9,5.71-2.7c3.31-2.1,5.71-3.61,6.61-3.91,3.91-2.4,9.92-5.71,18.63-10.22,1.5-.6,2.1,0,2.41,2.1.3,2.1-.3,3.61-1.2,4.51-2.1,2.71-9.62,6.31-22.24,11.42-1.5.6-4.81,2.4-9.92,5.41-3.61,2.1-6.61,3.31-9.02,3.31-1.5,0-3.31-.6-5.11-1.5-5.11-3.01-7.81-6.31-7.81-10.22,0-2.4,6.01-6.61,6.01-7.81,0-1.5-.9-2.1-2.71-2.1-1.5,0-5.71,3.01-6.91,3.31-2.71,1.2-6.01,4.21-9.62,9.02-3.61,4.81-7.21,7.51-10.82,7.81-9.02.9-14.12-.3-15.03-3.61-.3-1.5.6-4.81,3.01-10.22,1.2-2.71,7.51-7.51,7.81-11.42.3-1.5-.3-2.4-1.5-2.4-1.5,0-5.41,2.1-12.02,6.31-6.31,4.21-10.52,6.31-12.32,6.31-1.2,0-1.8-.9-1.8-2.4v-3.91c.3-1.2.9-2.4,2.4-3.31,4.81-1.5,12.32-4.81,22.24-9.62Z"/>
          <path d="M542.07,86.03c3.31-2.71,6.91-6.61,10.82-11.42l6.01-7.81c1.2-1.2,3.31-2.71,6.01-4.81,3.91-2.71,6.31-4.21,6.61-4.21,2.71,0,5.11,2.1,6.61,6.61-.3,1.2,0,3.01.6,5.41.6.6,1.2.9,1.8.9,1.5,0,5.71-4.21,6.61-4.51,1.5-1.8,3.91-3.61,7.81-5.41,6.01-.3,10.82,5.11,9.62,10.82-.3,2.1-1.8,3.61-4.51,4.51-4.81,1.2-8.42,1.8-20.14,6.91-3.91,2.4-7.51,7.21-11.42,14.43-2.4,4.81-3.61,7.51-3.61,8.42.3,2.1,9.02,4.51,10.22,3.61,4.51-2.1,8.12-3.31,10.82-3.01,3.31.3,5.71.3,7.21,0,3.31-.9,7.81-3.01,13.52-6.31,5.11-3.01,8.72-4.51,10.52-4.51,2.1,0,3.61.3,2.71,4.21-.3,2.1-1.2,3.61-2.1,4.21l-34.86,12.02c-7.81,2.4-15.03,3.61-21.64,3.61-2.1,0-7.51,1.2-9.62,1.2s-3.61-.9-4.81-2.4c-1.2-2.1-1.2-5.11,0-9.02.6-1.8,2.1-3.61,4.51-5.11,4.81-3.61,4.21-6.01,6.31-12.32,1.2-2.1,6.91-3.91,7.21-6.61.9-4.81-.3-7.51-3.01-7.81-1.5-.3-6.31,4.21-15.03,13.22-9.32,9.92-17.13,15.93-24.04,18.03-.6.3-.9,0-.9-.9,0-4.21,1.5-7.51,4.51-9.92l15.63-12.02Z"/>
          <path d="M680.62,85.43c-1.5.3-4.21.6-8.11,1.5l-7.81,2.1c-1.5.9-3.91,2.4-7.21,3.91-2.71.3-7.81-2.71-9.32-2.71s-2.71.6-3.91,1.8c-2.41,2.4-1.8,3.31-11.12,6.61-2.71,1.2-4.21,3.01-3.91,5.11.3,2.1,1.2,3.91,3.31,5.41,1.5.9,4.81,1.2,10.52.3,2.1-.9,5.41-2.1,10.22-3.61,3.31-.3,11.72-1.2,17.73-3.31,2.1-1.2,6.01-3.01,11.12-5.11,3.31-1.5,5.71-2.1,6.91-2.1.6,0,.9,1.2.6,3.31-.3,6.31-7.21,9.02-12.32,12.32-1.8,1.5-5.11,3.31-9.92,5.41-1.2-.3-3.31-.3-6.01-.3-.9.9-3,2.4-5.71,3.91-1.5-.3-3.61-.3-6.91-.3s-8.72,2.71-12.02,2.71c-2.1,0-5.71-1.5-7.81-1.5s-6.01,2.4-7.51,2.4c-2.71,0-4.81-2.1-6.01-6.01-.3-2.1,2.1-5.71,2.1-7.21s-2.4-5.41-3.91-4.21c-1.8,1.2-2.7.3-3-2.4-.3-5.11,3.31-6.01,8.42-9.62,2.1-3.01,6.61-6.91,13.22-11.42.3,0,1.2-.3,2.1-.6,1.8-.9,3.91-2.4,6.01-5.11.3-.9,1.2-1.8,2.1-3.01,1.2.3,3.01,0,5.41-.6,2.4-1.8,2.71-9.02,8.42-6.61,2.71.6,4.21.9,5.11.6,3.91-.3,11.12-6.91,14.43-6.91,1.5,0,3.91,0,8.72,7.21,2.71,4.21,3.91,7.21,3.91,8.72-.3,3.91-2.71,6.91-7.81,9.32ZM672.51,67.69c-.9,0-3.61,1.5-8.12,4.81-5.11,3.61-7.21,6.01-6.91,6.91,0,.3.3.3.6.3.9,0,2.4-.6,4.51-1.8,3.31-1.8,5.11-3.01,6.01-3.31,2.4-.3,4.81-1.5,7.51-3.31,0-1.8-3.91-3.61-3.61-3.61Z"/>
        </g>
        <g>
          <path d="M277.61,183.28c-6.01,1.5-10.22,3.01-12.92,5.11-3.01,2.71-4.51,4.21-4.51,5.11s1.2,1.5,3.31,1.5c4.81,0,12.32,5.71,15.93,5.71.9,0,2.1-.3,3.31-.9,1.5-.6,2.71-3.31,4.21-8.42,1.5-5.11,3.91-8.11,6.61-8.42,4.51-.9,8.12,0,10.22,2.4,1.2,1.2,1.8,2.71,1.8,4.51,0,6.31-3.31,13.52-13.83,17.13-5.11,1.8-8.12,3.31-9.02,4.81-.9,1.5-2.71,2.4-5.11,2.4,1.5,0-.9-.3-6.91-.6-2.71-.3-6.31-2.4-10.22-6.61s-7.51-6.01-10.82-5.41c-2.1.3-3.91,1.2-5.71,2.7-6.31,5.11-6.61,5.41-8.12,5.41-2.71,0-3.91-2.4-3.91-7.21,0-2.1.3-3.61.9-4.51,1.8-2.1,6.31-4.21,13.22-6.91,9.32-3.61,15.33-6.31,18.63-8.11,11.72-6.01,25.55-12.62,27.65-17.43.9-1.8-.6-2.71-4.51-2.71-5.71-.3-9.32-.6-10.52-.9-.9-.3-5.71-3.31-8.42-3.01-2.1.3-3,2.71-3.31,7.81,0,4.81-1.2,7.21-3.31,7.21-6.31.3-9.32-2.4-9.32-7.51,0-2.7,1.5-5.41,4.51-8.72,1.5-1.5,4.21-2.71,8.42-4.21,2.1-.6,3.91-.9,5.71-.9,2.1,0,5.11.6,9.62,1.8,4.51,1.2,8.42,1.8,11.12,1.5.3,0,2.1-.3,5.41-.6,5.11-.6,7.51-.9,7.81-.6,3.31,1.5,5.11,3.91,5.11,6.91,0,2.4-1.5,4.51-4.51,6.31-1.5,0-5.71,2.4-12.62,7.21-4.51,3.91-9.62,6.61-15.93,8.11Z"/>
          <path d="M342.83,207.03c-7.51,1.8-12.32,2.1-15.03,1.2-6.01-2.4-8.42-10.52-11.12-16.83-1.8.6-3.31.9-4.51.9-3.91,0-5.71-1.5-5.71-4.51,0-2.4.9-4.21,4.21-4.51,2.71-.9,2.4-.6,9.32-5.71,1.5-1.2,3.91-3.61,6.61-7.51,2.1-3.31,4.51-5.41,7.21-6.31l9.92-1.8,9.92-7.21c3.31-2.4,6.61-5.71,10.22-5.41.9.6,2.71,1.5,5.11,2.4,2.71.9,8.72-2.1,10.22-2.1.9,0,1.8.3,2.71.9,1.5.9,3.31,4.51,4.81,10.22,1.2,3.91,0,7.21-3.61,10.52-.9,1.5-3.91,6.31-9.62,14.13-.3.3,0,.3.6.3.9,0,3-.3,6.91-1.2,3.91-.9,6.31-1.2,7.21-1.2,0-.9.6,2.1,1.8,5.11,0,1.5-1.2,3.01-3.91,4.21-8.11,1.8-17.73,4.51-29.45,8.42-2.71,1.5-7.21,3.61-13.83,6.01ZM370.18,163.45c-.3-1.2-2.1-2.4-5.11-3.31-.9-.3-1.8-.6-2.71-.6-5.11,0-10.82,7.51-15.93,12.62-6.01,3.61-14.13,6.01-13.22,14.43.9,6.91,3.91,6.31,7.21,7.21,2.4.6,4.51-.9,6.01-4.51,2.1-4.81,3.61-7.81,5.11-8.72,3.31-2.1,10.82-2.1,13.53-4.81,3.31-3.31,5.11-6.01,5.11-8.42v-3.91Z"/>
          <path d="M401.74,173.37c.9-1.5,2.1-3.61,4.21-6.61,3.31-3.61,8.42-6.01,13.22-8.42,0,0,3.01-2.4,8.72-7.21,3.31-2.71,6.61-3.91,9.92-3.61,8.42.6,12.92,3.31,13.83,7.81.3,2.1-1.5,4.21-5.71,6.01-4.21,1.8-6.01,3.91-5.71,6.01.6,4.51,2.1,6.61,4.81,6.61,1.5,0,3.01-1.5,5.11-4.51,2.1-3.01,3.61-4.81,5.11-5.71,5.11-2.71,16.23-2.71,21.04-4.81,1.2-.3,3.31-1.8,6.31-4.21,2.1-1.8,4.21-2.71,6.31-2.4,6.91.9,11.12,7.21,11.12,12.32,0,2.71-.9,5.41-2.71,7.51-2.1,2.4-8.11,3.61-10.22,4.81-1.5,1.5-4.21,3.61-7.81,6.61l-5.71,6.31c-2.1,2.1-4.81,3.61-7.51,4.51-.9.3-1.2,1.2-.6,3.31.3,1.8,1.2,2.4,2.4,2.1,7.21-1.5,18.93-5.11,34.86-10.22l13.22-6.01c.9-.3,1.8-.6,2.71-.6,1.5,0,2.4.9,2.4,3.01s-.6,3.61-1.5,4.21c-3.61,2.4-9.92,5.71-18.63,9.62l-19.84,3.61c-2.71.9-6.61,3.01-11.12,6.31-4.51,3.31-8.12,5.11-10.82,5.11-1.5,0-3.01-.3-4.51-1.2-5.41-2.71-8.42-5.71-9.02-9.62-.3-2.1,0-4.21,1.5-6.31,3.31-3.91,4.21-7.81,15.33-11.72,4.81-1.5,7.51-3.91,7.81-7.21.9-6.01-1.2-8.72-3.61-8.72-1.5,0-3.31.9-6.01,2.7-3.91,2.71-6.31,3.91-6.61,4.21-2.71,1.5-5.41,3.31-8.12,6.01-3.91,3.91-6.31,6.31-7.51,7.21-7.21,7.51-14.13,17.73-22.84,16.83-4.81-.3-7.81-.9-9.32-1.2-3.31-.9-4.81-2.71-5.11-5.41-.3-2.4,1.2-4.21,4.51-5.71,5.11-1.8,7.81-3.01,8.72-3.91,5.71-4.81,11.72-9.32,14.43-16.23,2.4-5.71,3.61-8.72,3.61-9.02,0-3.01-1.5-4.51-4.21-4.51-.3,0-3.91,2.1-10.82,6.31-3.91,2.4-9.02,9.62-11.42,12.02-4.81,4.51-7.81,7.21-9.32,8.12-3.01,2.4-6.61,4.51-10.52,6.31-.9.3-1.8,0-2.1-1.2-.3-2.4.6-6.61,2.1-7.81,3.61-1.8,8.72-5.71,15.63-11.42Z"/>
          <path d="M580.86,172.76c-1.5.3-4.21.6-8.11,1.5l-7.81,2.1c-1.5.9-3.91,2.4-7.21,3.91-2.71.3-7.81-2.71-9.32-2.71s-2.71.6-3.91,1.8c-2.41,2.4-1.8,3.31-11.12,6.61-2.71,1.2-4.21,3.01-3.91,5.11.3,2.1,1.2,3.91,3.31,5.41,1.5.9,4.81,1.2,10.52.3,2.1-.9,5.41-2.1,10.22-3.61,3.31-.3,11.72-1.2,17.73-3.31,2.1-1.2,6.01-3.01,11.12-5.11,3.31-1.5,5.71-2.1,6.91-2.1.6,0,.9,1.2.6,3.31-.3,6.31-7.21,9.02-12.32,12.32-1.8,1.5-5.11,3.31-9.92,5.41-1.2-.3-3.31-.3-6.01-.3-.9.9-3,2.4-5.71,3.91-1.5-.3-3.61-.3-6.91-.3s-8.72,2.71-12.02,2.71c-2.1,0-5.71-1.5-7.81-1.5s-6.01,2.4-7.51,2.4c-2.71,0-4.81-2.1-6.01-6.01-.3-2.1,2.1-5.71,2.1-7.21s-2.4-5.41-3.91-4.21c-1.8,1.2-2.7.3-3-2.4-.3-5.11,3.31-6.01,8.42-9.62,2.1-3.01,6.61-6.91,13.22-11.42.3,0,1.2-.3,2.1-.6,1.8-.9,3.91-2.4,6.01-5.11.3-.9,1.2-1.8,2.1-3.01,1.2.3,3.01,0,5.41-.6,2.4-1.8,2.71-9.02,8.42-6.61,2.71.6,4.21.9,5.11.6,3.91-.3,11.12-6.91,14.43-6.91,1.5,0,3.91,0,8.72,7.21,2.71,4.21,3.91,7.21,3.91,8.72-.3,3.91-2.71,6.91-7.81,9.32ZM572.75,155.03c-.9,0-3.61,1.5-8.12,4.81-5.11,3.61-7.21,6.01-6.91,6.91,0,.3.3.3.6.3.9,0,2.4-.6,4.51-1.8,3.31-1.8,5.11-3.01,6.01-3.31,2.4-.3,4.81-1.5,7.51-3.31,0-1.8-3.91-3.61-3.61-3.61Z"/>
          <path d="M630.16,202.82c1.5-1.2,2.4-4.51,3-9.62.3-3.01-.9-6.61-3.61-10.82-2.71-4.21-3.91-7.81-3.61-10.82.3-1.5,1.8-4.51,1.8-6.61,0-1.5-.6-2.4-1.5-2.4s-3.31,1.5-6.91,4.81c-4.21,3.91-6.91,6.31-8.42,7.21-6.31,5.41-16.83,12.92-31.26,22.24-.9.3-1.2,0-1.2-1.2,0-2.4,1.2-6.31,2.4-7.21,3.61-3.91,10.22-9.92,19.84-18.03,10.82-7.81,20.14-13.52,27.65-17.43,1.8-.9,5.41-2.1,10.82-4.21,1.8-.9,4.51-1.8,8.42-3.01,6.91-2.1,14.43,1.2,14.43,8.42,0,4.51-5.71,10.82-10.22,10.82-3.31,0-10.82-4.51-12.32-4.51-.9,0-1.8.6-2.1,1.5-1.8,4.51-2.1,7.21-1.2,8.42,1.5,0,3.61.6,6.01,1.8,1.5,1.5,2.71,6.91,4.21,15.63,0,.3.3.3.6.3.9,0,3.31-.9,7.21-2.4,4.21-1.5,6.91-2.4,7.81-2.4.3,0,.6,0,.6.3v3.01c-.3,1.8-1.2,3.31-3,4.81-4.51,1.8-8.72,3.91-13.22,6.01-.3,1.5-1.5,2.71-3.61,3.01-2.71.3-5.41,2.1-7.81,4.81-7.21,8.11-16.23,12.32-27.35,12.32-8.72,0-12.92-3.61-12.92-11.12,0-1.5.3-3.31.6-5.11,1.2-4.51,3.61-6.91,7.51-6.91,4.51,0,6.61,1.2,6.61,3.31,0,.3-.6,2.1-.6,3.01,0,2.4,4.81,4.81,10.82,4.81,5.11,0,8.42-.9,10.52-2.7Z"/>
        </g>
        <path d="M96.13,98.33c-1.56-3.66-2.18-6.32-2.18-8.65,0-3.99,4.04-7.32,6.84-10.98,3.42-3.99,7.47-5.99,12.44-5.99,6.22,0,13.38,2.66,21.16,7.98,9.02,6.32,13.69,13.3,14.62,21.29.93,6.98,0,13.3-2.18,18.96l-7.47,13.3c-1.56,2.99-5.6,7.32-12.13,12.31-7.78,5.65-15.24,9.31-22.4,10.64-4.36,1-8.4,1.33-12.13,1.33-8.4,0-16.49-2.66-24.27-7.65-19.6-12.64-29.25-26.94-29.25-42.9,0-11.97,6.22-23.28,18.36-33.59l22.4-20.62c14-10.98,28.62-18.62,44.49-23.28,5.29-1.66,11.82-2.33,19.91-2.33,12.13,0,28.93,2,50.71,6.32,6.53,1.33,11.82,2,15.56,2,2.18,0,4.67-.33,7.47-1,5.91-1.33,11.82.67,14-6.32,1.56-4.32,4.04-7.65,8.09-9.31,2.18-1,4.98-1.33,7.78-1.33,6.53,0,6.22,4.32,6.22,6.98,0,3.99-1.24,7.65-3.42,10.64,9.02,1.66,17.11,2.33,23.96,2.33,4.36,0,7.78-.33,10.58-1,9.96-2.99,14.93-7.32,14.93-12.31,0-3.33-3.11-6.65-9.33-9.98-.62-.33-.93-1.66-.93-3.33,0-7.32,3.11-10.98,9.02-10.98,4.04,0,9.02,2.66,14.62,7.98,5.6,4.99,8.4,8.98,8.4,11.64,0,2-1.56,3.99-4.67,5.99l-9.33,6.32c-9.64,8.31-19.6,13.64-29.87,16.63-6.53,1.66-17.73,2.99-32.98,3.99-2.49.33-4.04-2.66-5.29-2.66-1.56,0-4.36,1.66-9.02,4.66-3.42,2.33-5.6,7.32-6.84,14.3-1.24,6.98-4.04,12.31-8.09,15.63-15.24,11.97-20.22,17.96-15.56,17.96,2.8,0,10.27-2,13.69-2s7.78.33,13.38,1.33c4.67,1,7.78,1.33,8.71,1,2.8-.33,4.36-2.33,4.36-5.99.31-3.66.93-6.32,2.18-7.65,8.4-8.98,12.75-8.98,12.75.33,0,7.32-1.24,11.97-4.04,13.97-9.96,7.98-16.8,12.64-20.22,13.64-4.04.67-8.4,1.33-12.44,2.33-.93.33-1.56.33-2.49.33-2.8,0-11.82-3.99-15.55-2.99-4.04,0-7.47-.67-13.69,4.32-2.8,7.32-4.98,12.31-7.16,14.63s-4.36,6.65-6.53,12.97c-3.42,9.31-9.96,18.63-20.22,28.27-9.96,9.31-20.22,15.96-31.11,20.29-4.67,2.66-14,6.98-28.62,12.64l-14.31,4.66c-9.64,2.33-19.6,3.66-29.87,3.66-14-.33-24.58-2.66-31.73-7.32-8.4-5.32-13.38-14.3-15.56-26.61-1.24-7.32-1.87-11.97-1.87-13.97,0-8.31,2.18-14.97,6.53-20.62,2.18-2.66,4.36-3.99,6.84-3.99,5.29,0,8.4,2.66,9.33,8.31.31,1.66.62,3.33.62,4.99,0,3.99-1.24,8.65-3.42,13.64-2.18,4.99-3.11,8.65-3.11,10.98,0,2.99.93,6.32,2.8,9.65,3.42,6.32,8.4,9.31,14.62,9.31h14.62c4.36,1.66,9.96,2.66,16.49,2.66,16.49,0,34.84-5.32,39.82-12.97,1.56-2.33,6.84-5.99,15.24-10.98,9.33-5.65,16.18-10.64,20.22-14.97,4.04-4.32,8.4-9.98,12.76-16.3l10.27-14.97c5.29-7.32,10.58-15.3,15.56-24.28,2.8-4.66,5.29-9.31,7.78-13.97l9.02-17.29c4.36-7.98,10.27-15.63,17.73-23.28.93-1,1.56-2,1.56-2.99,0-4.99-5.29-6.65-15.87-5.32-2.18.33-4.36.33-7.16.33s-14.31-1.33-34.22-3.66c-21.78-2.33-41.07-1-57.56,4.66-10.89,3.66-19.6,10.31-26.75,20.62l-10.27,21.95c-.93,1.66-1.56,5.32-2.18,10.64-1.25,11.97-2.18,12.97-2.18,15.3,0,1.66.93,3.66,2.49,5.32l5.6,5.99c1.87,2.33,4.67,4.99,8.71,7.98,3.11,2.33,9.02,3.99,18.04,5.65,4.98.67,8.71,1,11.51,1,2.18,0,4.04-.33,5.91-1,1.87-1,4.04-1.33,6.84-1.33s6.84-2.66,12.44-8.31c6.53-6.32,9.64-12.97,8.71-19.29-1.25-9.31-2.49-14.97-3.42-16.63-1.87-2.99-6.84-4.66-14.93-5.32-2.49,0-10.27,7.32-19.29,7.32-3.11,0-6.84-.67-10.89-1.66h5.29Z"/>
      </g>
    </g>
  </g>
</svg>